<?xml version="1.0" standalone="no"?>
<!DOCTYPE svg PUBLIC "-//W3C//DTD SVG 20010904//EN"
 "http://www.w3.org/TR/2001/REC-SVG-20010904/DTD/svg10.dtd">
<svg version="1.0" xmlns="http://www.w3.org/2000/svg"
 width="460.000000pt" height="460.000000pt" viewBox="0 0 460.000000 460.000000"
 preserveAspectRatio="xMidYMid meet">

<g transform="translate(0.000000,460.000000) scale(0.100000,-0.100000)"
fill="#000000" stroke="none">
<path d="M1014 3598 c-131 -8 -244 -38 -369 -98 -247 -117 -414 -314 -513
-605 -64 -188 -88 -398 -79 -700 12 -434 112 -720 327 -936 117 -118 226 -185
379 -233 113 -36 201 -47 361 -47 350 0 619 110 805 328 116 136 179 289 209
511 l6 42 -264 0 -265 0 -6 -37 c-29 -188 -103 -308 -226 -365 -70 -34 -150
-48 -269 -48 -305 0 -463 168 -510 543 -13 107 -13 565 1 662 55 401 231 572
568 552 116 -7 209 -35 274 -82 84 -62 147 -188 163 -322 l7 -63 264 0 265 0
-7 53 c-38 284 -169 519 -371 663 -85 61 -232 128 -335 153 -104 26 -280 38
-415 29z"/>
<path d="M2570 2290 l0 -1280 265 0 265 0 0 470 0 470 211 -2 211 -3 239 -465
238 -465 286 -3 c196 -1 285 1 285 8 0 6 -124 245 -275 531 -152 286 -273 524
-270 529 4 6 30 22 58 36 264 134 399 390 384 729 -9 208 -68 347 -202 481
-66 66 -99 90 -176 128 -106 52 -241 90 -382 105 -56 7 -313 11 -617 11 l-520
0 0 -1280z m1143 823 c149 -56 227 -181 227 -363 0 -123 -38 -212 -120 -282
-89 -77 -222 -101 -530 -96 l-185 3 -3 383 -2 383 277 -3 c258 -3 282 -5 336
-25z"/>
</g>
</svg>
