<svg xmlns="http://www.w3.org/2000/svg" width="46" height="46" viewBox="0 0 48 48">
  <path fill="#4285F4" d="M44.5 20H24v8.5h11.8C33.8 34.9 29.3 38 24 38 16.8 38 11 32.2 11 25s5.8-13 13-13c3.1 0 5.9 1.1 8.2 2.9l6.2-6.2C33.7 5 29.1 3 24 3 11.8 3 2 12.8 2 25s9.8 22 22 22c10.8 0 20-8 20-22 0-1.2-.1-2.3-.3-3.5z"/>
  <path fill="#34A853" d="M6.6 14.6l7 5.1C15.3 16 19.3 13 24 13c3.1 0 5.9 1.1 8.2 2.9l6.2-6.2C33.7 5 29.1 3 24 3c-7.2 0-13.7 4-17.4 10.1z"/>
  <path fill="#FBBC05" d="M24 46c6.5 0 11.8-2.1 15.8-5.7l-7.3-5.7C29.3 36 26.8 37 24 37c-5.3 0-9.8-3.4-11.4-8.1l-7 5.4C9.3 41.3 16 46 24 46z"/>
  <path fill="#EA4335" d="M46 25c0-1.7-.2-3.3-.5-5H24v10h12.3c-.5 2.6-1.9 4.8-3.9 6.3l7.3 5.7C43.3 38.7 46 32.6 46 25z"/>
</svg>
