<?xml version="1.0" encoding="utf-8"?>
<!-- Generator: Adobe Illustrator 27.8.1, SVG Export Plug-In . SVG Version: 6.00 Build 0)  -->
<svg version="1.1" id="Livello_1" xmlns="http://www.w3.org/2000/svg" xmlns:xlink="http://www.w3.org/1999/xlink" x="0px" y="0px"
	 viewBox="0 0 24 24" style="enable-background:new 0 0 24 24;" xml:space="preserve">
<style type="text/css">
	.st0{fill:#FFFFFF;}
</style>
<path d="M12,0C5.4,0,0,5.4,0,12s5.4,12,12,12s12-5.4,12-12S18.6,0,12,0z"/>
<rect x="6.1" y="9.5" class="st0" width="2.4" height="7.7"/>
<path class="st0" d="M7.3,5.9c-0.9,0-1.5,0.6-1.5,1.3c0,0.7,0.6,1.3,1.4,1.3h0c0.9,0,1.5-0.6,1.5-1.3C8.7,6.4,8.2,5.9,7.3,5.9z"/>
<path class="st0" d="M15.1,9.4c-1.4,0-2.2,0.8-2.4,1.3V9.5H10c0,0.6,0,7.7,0,7.7h2.7v-4.2c0-0.2,0-0.5,0.1-0.6
	c0.2-0.5,0.6-0.9,1.3-0.9c0.9,0,1.4,0.7,1.4,1.8v4h2.7v-4.3C18.2,10.6,16.8,9.4,15.1,9.4z"/>
</svg>
